<?xml version="1.0" standalone="no"?>
<!DOCTYPE svg PUBLIC "-//W3C//DTD SVG 20010904//EN"
 "http://www.w3.org/TR/2001/REC-SVG-20010904/DTD/svg10.dtd">
<svg version="1.0" xmlns="http://www.w3.org/2000/svg"
 width="447.000000pt" height="447.000000pt" viewBox="0 0 447.000000 447.000000"
 preserveAspectRatio="xMidYMid meet">
<metadata>
Created by potrace 1.11, written by Peter Selinger 2001-2013
</metadata>
<g transform="translate(0.000000,447.000000) scale(0.100000,-0.100000)"
fill="#000000" stroke="none">
<path d="M0 4086 c0 -341 2 -385 16 -390 29 -11 68 -6 114 15 25 11 77 23 122
26 84 6 86 8 112 87 6 18 7 18 26 1 17 -15 20 -16 25 -3 11 27 135 -6 135 -35
0 -33 157 -66 175 -37 3 6 44 10 90 10 46 0 96 5 112 11 15 6 59 11 98 12 l70
1 19 -37 c12 -22 27 -37 38 -37 14 0 18 -8 18 -34 0 -37 -65 -252 -79 -261 -5
-2 -33 -7 -62 -9 -55 -4 -60 -7 -130 -82 -22 -24 -47 -31 -152 -40 -62 -5 -85
-3 -140 16 -81 27 -131 23 -181 -15 -34 -26 -38 -36 -51 -122 -6 -39 -5 -43
24 -57 16 -9 38 -16 48 -16 10 -1 35 -7 56 -15 38 -13 40 -13 97 27 53 36 64
40 138 44 44 2 92 11 108 19 16 8 40 15 54 15 15 0 30 4 35 9 16 14 65 23 65
11 0 -5 5 -10 10 -10 6 0 10 6 10 13 0 7 9 13 20 14 14 1 20 -4 20 -19 0 -19
-5 -20 -45 -16 -25 3 -48 2 -51 -3 -3 -5 -18 -9 -34 -9 -16 0 -62 -15 -102
-33 -58 -27 -87 -49 -143 -109 -39 -41 -82 -99 -97 -129 -27 -52 -58 -175 -58
-225 0 -38 -26 -57 -83 -61 -29 -3 -68 -12 -87 -21 -19 -9 -46 -17 -60 -17
-21 0 -26 -5 -28 -34 -2 -19 -15 -48 -29 -65 -19 -23 -23 -37 -19 -60 8 -38
21 -47 71 -44 22 1 50 -4 62 -10 12 -7 31 -12 41 -12 24 0 75 -57 68 -76 -3
-7 0 -16 5 -20 10 -6 6 -92 -7 -136 -6 -19 -171 -102 -223 -112 -37 -7 -102 7
-124 27 -7 6 -37 34 -65 62 l-52 49 0 -347 0 -347 78 0 c68 0 85 -4 147 -35
75 -37 125 -45 125 -20 0 8 4 15 9 15 4 0 12 14 17 31 5 18 20 40 34 51 25 18
26 18 70 -4 40 -20 66 -24 230 -30 102 -3 219 -4 260 -1 41 2 87 0 101 -5 37
-15 58 -66 63 -163 7 -120 14 -159 37 -202 l21 -38 -25 -20 c-15 -11 -34 -45
-47 -83 -14 -43 -38 -83 -75 -127 -29 -35 -90 -107 -134 -159 -44 -52 -81
-100 -81 -106 0 -5 -14 -23 -31 -40 -17 -16 -51 -56 -75 -90 -24 -34 -61 -73
-82 -88 -21 -14 -48 -39 -59 -54 -21 -29 -139 -78 -348 -146 -44 -14 -114 -39
-155 -55 -64 -25 -75 -33 -78 -55 l-3 -26 2235 0 2236 0 0 273 -1 272 -92 41
c-50 23 -139 63 -197 89 -58 26 -150 67 -204 91 -55 25 -105 53 -112 63 -10
14 -24 17 -66 15 -84 -5 -88 -1 -88 64 0 31 -7 95 -15 142 -8 47 -15 96 -14
110 0 23 1 23 9 5 7 -17 9 -17 9 -3 1 20 30 38 61 38 25 0 90 -60 90 -84 0 -9
5 -16 10 -16 6 0 10 -7 10 -15 0 -8 4 -15 8 -15 4 0 15 -13 24 -28 14 -23 15
-36 7 -66 -16 -56 -4 -76 23 -40 12 16 27 32 33 36 5 4 10 13 10 20 0 6 14 20
32 31 l32 18 7 -25 c8 -32 -4 -85 -15 -68 -6 10 -11 10 -20 -2 -16 -19 -6 -36
19 -36 26 0 34 -17 13 -29 -15 -9 -16 -12 -4 -20 7 -5 10 -14 6 -21 -6 -9 -9
-10 -15 0 -5 8 -18 10 -39 5 -48 -10 -32 -30 24 -30 30 0 50 -5 52 -12 3 -7
17 -13 32 -13 15 0 36 -9 46 -20 16 -18 27 -20 69 -16 114 12 166 31 166 62 0
17 16 18 26 3 4 -8 9 -7 15 2 7 11 9 11 9 1 0 -7 5 -10 12 -6 12 8 -74 56
-107 59 -13 1 -19 8 -17 19 2 9 -4 16 -13 16 -8 0 -15 2 -15 5 0 14 28 63 47
84 13 13 23 34 23 47 0 22 4 24 50 24 48 0 63 11 38 26 -7 4 -29 7 -50 5 -32
-1 -40 2 -47 21 -10 27 -4 53 15 69 12 10 18 8 29 -7 13 -18 14 -18 35 4 11
12 25 22 31 22 16 0 8 1343 -9 1362 -15 18 -72 22 -118 7 -47 -15 -71 -47 -85
-117 -14 -76 -29 -86 -114 -80 -63 6 -105 23 -105 45 0 28 -39 34 -158 25
-118 -10 -162 -11 -162 -4 0 21 92 130 169 202 l96 90 -2 58 c-3 143 -106 279
-237 317 -28 8 -118 19 -201 25 -82 6 -153 14 -156 18 -4 4 -22 66 -39 137
-89 374 -69 318 -208 566 -26 46 -30 59 -18 59 18 0 20 13 6 40 -8 15 -6 22
10 33 20 14 20 14 1 38 -10 13 -20 33 -22 44 -3 12 -13 20 -24 21 -18 1 -20
-4 -16 -55 1 -31 8 -59 15 -63 8 -6 8 -8 -1 -8 -7 0 -23 10 -37 23 -135 122
-177 160 -214 190 -23 20 -38 38 -32 42 16 10 11 28 -6 21 -8 -3 -22 0 -30 8
-9 10 -10 16 -2 18 8 3 8 10 -1 26 -13 25 -34 30 -25 7 4 -8 1 -15 -6 -15 -7
0 -9 -8 -5 -22 6 -23 6 -23 -12 -3 -10 11 -31 22 -48 23 -16 2 -34 8 -40 14
-7 7 0 9 21 5 44 -8 52 4 12 18 -23 8 -37 8 -47 1 -10 -8 -15 -8 -18 0 -2 6
-14 9 -26 7 -21 -4 -23 0 -25 39 -4 68 -20 98 -53 98 -18 0 -30 -6 -34 -19
-10 -34 -85 -34 -85 0 0 17 -8 19 -93 19 l-94 0 -35 -40 -36 -39 -53 19 c-29
11 -56 25 -60 32 -7 10 -11 10 -21 0 -16 -16 -65 -16 -71 1 -2 6 -7 -5 -11
-26 -5 -26 -2 -47 8 -67 l14 -29 -36 -6 c-21 -4 -73 -15 -116 -26 -53 -12 -83
-16 -90 -9 -5 5 -12 31 -14 57 -5 59 -15 73 -57 73 -18 0 -38 7 -45 15 -7 8
-19 15 -27 15 -7 0 -16 7 -19 15 -5 13 -50 15 -318 15 l-312 0 -14 -35 c-19
-48 -30 -55 -92 -62 -48 -5 -57 -2 -85 21 -18 15 -33 37 -35 49 l-3 22 -327 3
-328 2 0 -384z m2300 249 c-14 -17 -40 -20 -40 -4 0 5 5 7 10 4 6 -3 10 -1 10
4 0 6 7 11 16 11 14 0 14 -3 4 -15z m-124 -17 c-16 -9 -36 -3 -36 11 0 5 12 6
26 3 22 -4 24 -6 10 -14z m-56 -8 c0 -5 -4 -10 -10 -10 -5 0 -10 5 -10 10 0 6
5 10 10 10 6 0 10 -4 10 -10z m-1569 -72 c8 2 20 -8 26 -21 16 -35 26 -149 19
-210 -6 -46 -11 -54 -36 -65 -33 -15 -96 -12 -93 4 1 6 -10 9 -27 6 -27 -4
-29 -2 -35 43 -9 60 -1 122 19 144 9 10 16 23 16 29 0 17 41 62 57 62 7 0 13
5 13 11 0 6 5 7 13 2 6 -4 19 -6 28 -5z m979 -63 c0 -8 -7 -15 -15 -15 -8 0
-15 7 -15 15 0 8 7 15 15 15 8 0 15 -7 15 -15z m-1256 -47 c22 -13 43 -24 46
-26 2 -1 5 -13 5 -25 2 -35 17 -81 32 -95 15 -16 18 -52 3 -52 -5 0 -10 5 -10
10 0 11 -53 14 -63 4 -11 -12 -78 -11 -91 0 -6 6 -21 16 -31 22 -11 6 -26 29
-34 50 -12 34 -12 44 0 70 8 16 24 33 37 39 12 5 22 13 22 17 0 15 43 8 84
-14z m2335 -1344 c14 -2 42 1 63 5 33 8 40 6 53 -13 15 -21 15 -21 -42 -27
-32 -3 -65 -7 -73 -10 -29 -8 -38 -59 -18 -106 19 -45 17 -64 -6 -73 -32 -12
-46 -33 -61 -88 -15 -60 -8 -76 30 -66 20 5 26 4 21 -5 -12 -19 13 -41 48 -42
17 -1 23 -3 14 -6 -37 -9 -15 -59 30 -68 11 -2 36 -8 56 -14 21 -5 43 -8 49
-6 52 15 51 14 33 34 -17 18 -17 20 3 30 11 6 36 11 55 11 20 0 36 4 36 9 0 5
34 7 78 5 98 -6 113 -6 118 -2 8 9 -36 124 -59 153 -26 33 -121 75 -170 75
-35 0 -57 10 -57 25 0 26 192 32 333 10 44 -7 47 3 11 50 -15 21 -21 36 -15
40 6 3 11 -1 11 -10 0 -13 4 -14 20 -5 17 9 26 5 57 -27 21 -21 42 -37 46 -35
4 1 10 -6 14 -15 4 -10 9 -20 12 -23 11 -9 41 -69 40 -77 -1 -4 0 -15 4 -23
16 -42 30 -127 37 -230 5 -63 14 -116 20 -118 5 -2 10 -12 10 -21 0 -10 9 -52
19 -93 24 -94 33 -378 12 -378 -10 0 -26 -50 -21 -65 2 -5 4 -35 5 -65 1 -30
5 -73 10 -94 7 -34 6 -38 -9 -33 -11 5 -16 1 -16 -13 0 -12 7 -20 18 -21 14 0
13 -3 -5 -16 -13 -8 -23 -21 -23 -28 0 -7 -15 -16 -32 -21 -20 -6 -34 -17 -37
-29 -3 -19 -3 -19 17 -2 17 15 20 16 25 3 4 -9 0 -22 -8 -30 -8 -8 -15 -26
-15 -40 0 -16 -6 -26 -15 -26 -8 0 -15 -5 -15 -11 0 -8 -4 -8 -14 1 -8 6 -13
17 -10 25 3 7 1 16 -5 20 -6 3 -11 -1 -11 -9 0 -19 -30 -22 -31 -3 0 6 -5 3
-10 -8 -7 -16 -8 -14 -4 10 8 46 -10 64 -24 24 -6 -17 -12 -41 -12 -53 -1 -17
-2 -18 -6 -3 -2 9 -8 17 -13 17 -4 0 -17 16 -29 35 -21 35 -41 46 -41 22 0
-18 -37 -51 -41 -38 -2 6 -14 12 -26 14 -38 5 -62 42 -56 86 3 25 -3 61 -17
104 -27 79 -46 108 -58 90 -6 -10 -12 -10 -27 1 -11 8 -25 12 -32 9 -7 -3 -13
0 -13 7 0 6 -10 10 -21 8 -30 -4 -120 84 -150 149 -13 29 -28 52 -32 53 -5 0
-5 -4 -2 -10 3 -5 1 -10 -4 -10 -23 0 -9 37 29 79 22 24 40 47 40 52 0 5 5 9
10 9 6 0 10 4 10 9 0 5 -9 7 -20 4 -11 -3 -30 4 -46 16 -35 27 -48 27 -90 -5
-31 -24 -36 -25 -47 -11 -11 15 -59 22 -117 17 -8 -1 -39 7 -69 17 -51 18 -55
18 -105 2 -28 -10 -55 -14 -59 -9 -5 4 -1 24 8 45 17 34 20 36 55 30 34 -6 40
-3 61 26 31 44 32 57 6 99 -19 31 -22 33 -25 14 -2 -16 -8 -20 -21 -17 -12 3
-26 -5 -39 -21 -11 -14 -24 -26 -30 -26 -5 0 -26 -33 -47 -72 -20 -40 -41 -77
-46 -83 -24 -25 9 -142 47 -163 14 -8 16 -13 6 -24 -6 -8 -9 -23 -6 -35 6 -22
-30 -73 -52 -73 -6 0 -17 -7 -24 -15 -7 -9 -19 -14 -27 -11 -7 3 -21 -3 -30
-13 -10 -9 -33 -23 -51 -31 -18 -7 -39 -25 -47 -39 -8 -15 -14 -20 -15 -11 0
11 -4 10 -16 -5 -8 -11 -17 -18 -19 -15 -6 8 -50 -53 -50 -70 0 -8 -6 -14 -12
-13 -7 2 -13 -6 -13 -16 0 -11 -4 -23 -10 -26 -5 -3 -10 3 -10 14 0 12 -4 21
-10 21 -12 0 -13 -75 -1 -98 5 -10 5 -27 -1 -42 -10 -23 -11 -21 -25 30 -18
69 -29 81 -49 52 -11 -15 -25 -22 -50 -22 -19 0 -34 -4 -34 -10 0 -5 -7 -10
-15 -10 -18 0 -19 12 -4 27 8 8 6 14 -9 22 -16 8 -21 6 -31 -15 -6 -14 -11
-31 -11 -39 0 -8 -4 -15 -10 -15 -5 0 -10 9 -10 19 0 11 -4 22 -9 25 -4 3 -11
19 -14 35 -5 25 -10 28 -29 23 -19 -5 -21 -3 -11 9 16 19 13 58 -4 52 -7 -3
-15 -14 -18 -24 -9 -27 -35 -6 -28 21 3 11 0 26 -6 33 -6 8 -7 17 -3 21 4 4 0
13 -8 19 -9 7 -22 32 -29 57 -7 25 -17 53 -22 62 -5 10 -6 24 -3 33 3 8 2 15
-4 15 -14 0 -48 60 -54 96 -3 16 -12 43 -19 61 -10 26 -10 38 0 71 10 28 11
60 6 109 -11 92 -8 303 4 383 16 110 49 180 52 113 2 -27 2 -27 6 -3 8 42 57
80 103 80 27 0 40 -4 40 -13 0 -8 10 -19 23 -24 18 -8 23 -18 21 -42 -2 -27 1
-31 23 -31 39 0 65 18 58 41 -4 13 -2 19 8 19 8 0 36 3 63 6 l49 7 -28 -27
c-16 -14 -33 -24 -38 -20 -18 11 -49 -33 -49 -69 0 -19 -7 -40 -15 -47 -19
-16 -19 -34 -1 -49 11 -10 27 -9 70 0 30 7 53 16 50 20 -2 4 3 12 10 18 27 22
220 -9 198 -31 -12 -12 -85 -29 -119 -29 -23 1 -40 -27 -20 -34 6 -2 62 -5
124 -8 90 -3 113 -1 118 11 3 7 13 12 22 10 10 -3 30 2 46 9 26 13 27 12 27
-12 0 -28 25 -44 43 -26 18 18 57 14 57 -6 0 -15 2 -14 15 3 14 19 15 18 34
-6 11 -14 22 -22 25 -19 10 10 9 198 -1 211 -6 7 -22 46 -37 85 -15 40 -32 75
-37 79 -5 3 -9 10 -9 15 0 6 4 7 10 4 5 -3 8 0 5 7 -12 30 -90 65 -157 71 -73
7 -109 20 -105 40 1 6 -8 13 -20 15 -13 2 -23 8 -23 13 0 6 9 7 20 4 12 -4 27
-2 33 4 7 5 42 12 77 16 36 3 77 8 92 11 16 3 44 0 63 -6 27 -9 39 -9 50 0 10
8 19 8 34 1 11 -6 38 -11 60 -11 22 0 43 -5 46 -10 4 -6 17 -2 33 11 16 12 28
16 30 9 3 -8 8 -8 18 1 11 9 18 8 31 -2 13 -11 17 -11 20 -1 3 6 13 12 23 12
9 0 23 7 30 15 7 8 17 12 23 8 6 -4 22 -8 36 -9z m-1125 -239 c-4 -8 -8 -15
-10 -15 -2 0 -4 7 -4 15 0 8 4 15 10 15 5 0 7 -7 4 -15z m1328 -92 c3 -16 9
-36 13 -45 6 -16 1 -18 -40 -18 -47 0 -85 13 -85 30 0 13 71 60 91 60 10 0 19
-10 21 -27z m-923 -45 c1 -14 -7 -18 -39 -18 -32 0 -40 4 -40 18 0 11 13 25
33 34 29 14 33 14 39 -1 4 -9 7 -24 7 -33z m1839 -188 c25 0 45 -16 47 -37 1
-10 6 -26 10 -36 10 -24 -6 -40 -36 -35 -14 2 -31 18 -46 46 -20 35 -22 46
-12 65 8 13 14 17 17 9 2 -6 11 -12 20 -12z m-188 -35 c0 -8 -4 -15 -10 -15
-5 0 -10 7 -10 15 0 8 5 15 10 15 6 0 10 -7 10 -15z m147 -53 c4 -9 10 -19 15
-22 4 -3 -1 -28 -11 -54 -10 -28 -21 -44 -25 -37 -12 19 -70 13 -84 -9 -7 -12
-17 -18 -21 -15 -5 3 -12 -1 -14 -7 -3 -7 -6 1 -6 19 -1 17 -4 38 -7 46 -3 8
2 21 10 30 8 8 18 27 22 41 3 15 18 33 33 40 22 12 30 12 54 0 15 -8 31 -23
34 -32z m-2660 -14 c-3 -8 -6 -5 -6 6 -1 11 2 17 5 13 3 -3 4 -12 1 -19z m-73
-80 c10 -81 37 -201 49 -216 20 -25 -1 -23 -29 3 -15 14 -54 33 -86 42 -32 9
-58 20 -58 25 0 4 -7 8 -15 8 -17 0 -66 28 -77 44 -3 5 -5 21 -3 35 2 14 4 29
4 34 1 4 10 7 20 7 11 0 21 5 23 11 2 6 36 14 76 17 68 4 72 6 72 29 0 43 17
15 24 -39z m3188 -112 c4 -6 8 -19 8 -28 0 -9 6 -21 14 -25 8 -4 17 -25 21
-45 7 -36 6 -38 -19 -38 -21 0 -30 -9 -49 -47 -26 -57 -51 -65 -98 -31 -43 31
-88 80 -89 96 0 7 14 33 30 58 27 38 36 44 65 44 22 0 42 7 53 19 18 20 50 18
64 -3z m-3125 -158 c-3 -8 -6 -5 -6 6 -1 11 2 17 5 13 3 -3 4 -12 1 -19z m72
-75 c0 -32 -4 -67 -9 -78 -7 -18 -9 -16 -23 15 -8 19 -17 52 -21 72 -7 38 -8
37 47 47 4 0 7 -25 6 -56z m26 -103 c3 -5 1 -10 -4 -10 -6 0 -11 5 -11 10 0 6
2 10 4 10 3 0 8 -4 11 -10z m1688 -322 c24 -24 47 -50 50 -60 8 -22 -8 -74
-21 -71 -6 2 -19 -14 -28 -35 -34 -78 -40 -86 -76 -100 -25 -10 -38 -21 -38
-34 0 -10 -3 -18 -8 -18 -4 0 -13 -13 -20 -30 -14 -30 -60 -60 -94 -60 -10 0
-18 -7 -18 -15 0 -8 -11 -25 -25 -39 l-25 -25 0 24 c0 14 -6 25 -13 25 -7 0
-18 9 -25 20 -15 24 -42 16 -43 -14 0 -21 0 -21 -9 2 -10 24 -20 28 -37 11 -8
-8 -15 -6 -25 10 -7 11 -23 21 -35 21 -12 0 -34 12 -49 28 -17 18 -28 23 -31
15 -7 -19 -23 -16 -23 3 0 20 -36 53 -67 60 -13 4 -23 10 -23 16 0 5 -4 6 -10
3 -5 -3 -12 7 -16 22 -8 34 -32 63 -47 57 -17 -6 -46 16 -29 23 17 7 15 23 -3
23 -39 0 0 35 41 36 25 1 34 -4 43 -22 6 -14 19 -24 31 -24 11 0 20 -4 20 -10
0 -5 14 -17 32 -26 18 -9 38 -22 45 -29 7 -7 22 -11 33 -8 18 5 19 2 14 -28
-3 -19 -8 -40 -10 -47 -2 -9 9 -6 32 8 26 17 38 20 47 11 15 -15 54 -14 60 2
8 18 48 -34 43 -55 -5 -20 9 -33 42 -41 18 -4 22 -2 18 10 -19 49 -18 65 9
103 19 28 35 40 51 40 14 0 24 6 24 14 0 8 11 17 25 20 40 10 61 81 28 93 -10
3 -26 13 -35 21 -10 8 -23 12 -31 9 -8 -3 -27 6 -42 19 -30 26 -45 30 -45 14
0 -5 -20 -10 -45 -10 -25 0 -45 -4 -45 -9 0 -12 -78 -12 -86 0 -4 6 -11 5 -21
-2 -8 -7 -34 -12 -59 -10 -25 1 -52 -3 -60 -10 -8 -6 -15 -10 -17 -8 -30 52
-28 62 16 78 36 14 100 14 92 1 -3 -5 1 -10 10 -10 9 0 27 -7 41 -17 24 -15
25 -15 31 5 6 25 33 30 33 7 0 -8 5 -15 10 -15 6 0 10 7 10 15 0 11 13 15 53
16 28 1 55 1 58 1 3 -1 32 7 65 18 32 10 87 19 121 19 60 1 64 0 106 -41z
m327 -62 c0 -3 -4 -8 -10 -11 -5 -3 -10 -1 -10 4 0 6 5 11 10 11 6 0 10 -2 10
-4z m-693 -398 c-3 -8 -6 -5 -6 6 -1 11 2 17 5 13 3 -3 4 -12 1 -19z"/>
<path d="M2470 2566 c0 -9 7 -16 16 -16 9 0 14 5 12 12 -6 18 -28 21 -28 4z"/>
<path d="M3135 1287 c-4 -10 -3 -23 4 -30 16 -16 23 -3 12 24 -8 22 -10 22
-16 6z"/>
<path d="M2530 928 c0 -7 4 -19 9 -27 6 -9 9 -5 9 13 0 14 -4 26 -9 26 -5 0
-9 -6 -9 -12z"/>
<path d="M2508 874 c-3 -3 -4 -14 -1 -25 4 -15 8 -17 19 -8 18 15 18 39 1 39
-8 0 -16 -3 -19 -6z"/>
<path d="M3394 4375 c-4 -11 -11 -22 -15 -25 -13 -9 8 -100 26 -114 11 -8 16
-20 12 -30 -5 -11 -1 -16 13 -16 24 0 24 -4 5 -33 -13 -20 -14 -46 -6 -158 1
-11 11 -16 31 -17 25 -1 30 3 30 23 0 13 4 26 9 29 4 3 14 26 21 52 9 30 20
48 32 52 10 2 18 9 18 14 0 6 -7 8 -15 4 -20 -7 -75 41 -75 67 0 26 -26 67
-60 96 -17 14 -21 23 -14 28 7 5 8 16 4 28 l-8 20 -8 -20z"/>
<path d="M3072 4130 c0 -14 2 -19 5 -12 2 6 2 18 0 25 -3 6 -5 1 -5 -13z"/>
<path d="M3950 3159 c-52 -11 -99 -24 -105 -31 -7 -8 -6 -9 3 -4 7 4 18 4 25
-1 7 -5 32 -15 57 -22 25 -7 75 -31 112 -53 37 -22 78 -40 90 -41 13 0 60 8
105 17 75 16 86 16 143 2 92 -24 90 -25 90 44 l0 60 -47 0 c-46 0 -96 7 -241
36 -89 17 -113 17 -232 -7z"/>
<path d="M73 2760 c-23 -10 -40 -47 -26 -60 4 -5 34 -20 65 -34 52 -23 59 -24
73 -10 18 19 18 18 0 53 -11 23 -70 63 -87 60 -1 0 -13 -4 -25 -9z"/>
<path d="M0 2292 c0 -93 2 -104 13 -82 7 14 27 30 45 36 48 15 59 30 43 55 -9
15 -10 24 -2 32 8 8 11 8 11 -1 0 -7 5 -12 10 -12 6 0 10 7 10 15 0 17 -36 39
-54 32 -8 -3 -27 3 -45 14 l-31 19 0 -108z"/>
<path d="M335 1278 c-4 -18 -13 -45 -21 -59 -15 -29 -75 -69 -104 -69 -10 0
-22 -4 -25 -10 -3 -5 -21 -10 -39 -10 -19 0 -44 -9 -57 -19 l-24 -19 40 -10
c83 -22 211 -34 302 -30 108 6 126 15 93 50 -12 12 -36 52 -53 88 -43 89 -65
120 -87 120 -13 0 -21 -10 -25 -32z"/>
<path d="M3920 830 c0 -13 5 -20 13 -17 6 2 12 10 12 17 0 7 -6 15 -12 18 -8
2 -13 -5 -13 -18z"/>
</g>
</svg>
